<?xml version="1.0" standalone="no"?><!DOCTYPE svg PUBLIC "-//W3C//DTD SVG 1.1//EN" "http://www.w3.org/Graphics/SVG/1.1/DTD/svg11.dtd"><svg t="1512317956549" class="icon" style="" viewBox="0 0 1024 1024" version="1.1" xmlns="http://www.w3.org/2000/svg" p-id="3806" xmlns:xlink="http://www.w3.org/1999/xlink" width="14" height="14"><defs><style type="text/css"></style></defs><path d="M992 480l-164.736 0c-5.824-43.424-17.632-84.192-33.888-121.376L896 256c17.696 0 32-14.336 32-32L928 64c0-17.664-14.304-32-32-32s-32 14.336-32 32l0 160-105.792 70.528c-16.288-24.032-34.656-45.824-55.2-64.16C693.376 101.024 611.552 0 512 0s-181.376 101.024-191.04 230.368C300.448 248.672 282.048 270.464 265.792 294.528L160 224 160 64c0-17.664-14.336-32-32-32S96 46.336 96 64l0 160c0 17.664 14.336 32 32 32l102.624 102.624C214.368 395.808 202.56 436.576 196.736 480L32 480c-17.664 0-32 14.304-32 32s14.336 32 32 32l164.576 0c3.552 26.688 9.504 116.32 17.184 140.8l-93.344 116.736C106.496 805.056 96 817.024 96 832l0 160c0 17.696 14.336 32 32 32s32-14.304 32-32l0-160 80.672-80.672C294.688 857.44 388.672 928 496 928c5.408 0 10.656-0.96 16-1.344C517.344 927.04 522.592 928 528 928c107.328 0 201.312-70.56 255.328-176.672L864 832l0 160c0 17.696 14.304 32 32 32s32-14.304 32-32l0-160c0-14.976-10.496-26.944-24.384-30.432L810.24 684.8c7.68-24.512 13.632-114.112 17.184-140.8L992 544c17.696 0 32-14.304 32-32S1009.696 480 992 480z" p-id="3807" fill="#989581"></path></svg>