<?xml version="1.0" standalone="no"?><!DOCTYPE svg PUBLIC "-//W3C//DTD SVG 1.1//EN" "http://www.w3.org/Graphics/SVG/1.1/DTD/svg11.dtd"><svg t="1512524379374" class="icon" style="" viewBox="0 0 1024 1024" version="1.1" xmlns="http://www.w3.org/2000/svg" p-id="15414" xmlns:xlink="http://www.w3.org/1999/xlink" width="16" height="16"><defs><style type="text/css"></style></defs><path d="M673.641124 847.868889H296.983331c3.008514 39.182316 35.651917 70.403326 75.571012 70.403326h387.330855A76.379422 76.379422 0 0 0 836.059959 842.11792V295.039053c0-35.252828-24.375105-64.816085-57.018507-73.401606v520.861814c-0.010233 57.939481-47.440381 105.369629-105.400328 105.369628z" p-id="15415" fill="#989581"></path><path d="M651.435424 105.686853H388.712316L187.950274 306.469361v422.450653a76.379422 76.379422 0 0 0 76.154295 76.154295h387.330855A76.379422 76.379422 0 0 0 727.589719 728.920014V181.851381a76.389655 76.389655 0 0 0-76.154295-76.164528zM398.935124 268.453612a48.259024 48.259024 0 0 1-48.259024 48.24879h-121.773194L398.935124 146.639485v121.773194z" p-id="15416" fill="#989581"></path></svg>